<?xml version="1.0" standalone="no"?>
<!DOCTYPE svg PUBLIC "-//W3C//DTD SVG 20010904//EN"
 "http://www.w3.org/TR/2001/REC-SVG-20010904/DTD/svg10.dtd">
<svg version="1.0" xmlns="http://www.w3.org/2000/svg"
 width="260.000000pt" height="260.000000pt" viewBox="0 0 260.000000 260.000000"
 preserveAspectRatio="xMidYMid meet">
<metadata>
Created by potrace 1.11, written by Peter Selinger 2001-2013
</metadata>
<g transform="translate(0.000000,260.000000) scale(0.100000,-0.100000)"
fill="#000000" stroke="none">
<path d="M342 2215 c-26 -33 -28 -46 -58 -410 -20 -248 -42 -361 -126 -643
-86 -292 -111 -396 -105 -444 9 -70 122 -188 180 -188 44 0 100 63 223 249
110 169 314 490 379 597 86 143 255 391 295 432 23 24 58 50 77 59 33 13 38
13 62 -4 14 -11 34 -36 45 -57 36 -72 18 -319 -40 -556 -24 -96 -48 -167 -144
-435 -35 -97 -39 -139 -16 -182 24 -47 80 -93 120 -100 33 -5 40 -2 74 34 44
46 97 135 204 343 150 289 455 774 552 878 53 57 71 69 118 82 23 7 32 5 47
-12 40 -42 46 -203 16 -398 -11 -69 -54 -237 -99 -380 -75 -241 -106 -362
-112 -430 -5 -57 -3 -68 16 -92 37 -47 109 -35 163 27 115 133 267 579 322
950 17 110 17 294 1 367 -31 137 -108 268 -180 302 -70 33 -186 11 -281 -54
-47 -32 -148 -128 -198 -188 -78 -93 -297 -442 -297 -473 0 -7 -2 -10 -4 -8
-3 2 2 47 10 99 39 254 11 375 -120 526 -103 119 -187 142 -302 84 -33 -16
-81 -49 -106 -72 -54 -52 -195 -228 -253 -318 -56 -86 -194 -329 -325 -573
-35 -64 -65 -116 -66 -114 -2 2 4 25 12 52 112 368 174 658 174 812 0 122 -94
238 -210 258 -22 4 -33 -1 -48 -20z"/>
</g>
</svg>
